<svg id="kity_svg_6" xmlns="http://www.w3.org/2000/svg" xmlns:xlink="http://www.w3.org/1999/xlink" version="1.1" width="878" height="350" style="background: rgb(251, 251, 251); visibility: visible;" viewBox="0 0 878 350"><defs id="kity_defs_7"><linearGradient id="kity_linearGradient_17" x1="0" y1="0" x2="0" y2="1"><stop id="kity_stop_18" offset="0" stop-color="rgb(255, 255, 255)"></stop><stop id="kity_stop_19" offset="1" stop-color="rgb(204, 204, 204)"></stop></linearGradient><marker id="kity_marker_2" orient="auto" refX="6" refY="0" viewBox="-7 -7 14 14" markerWidth="7" markerHeight="7" markerUnits="userSpaceOnUse"><path id="kity_path_3" fill="rgb(115, 161, 191)" stroke="none" d="M6,0A6,6,0,1,1,-6,0A6,6,0,1,1,6,0"></path></marker></defs><g id="kity_g_8"><g id="minder1" text-rendering="optimize-speed"><g id="minder_connect_group1"><path id="kity_path_31" fill="none" stroke="rgb(115, 161, 191)" stroke-width="1" d="M463.5000083371997,212.5000031068921A182,104,0,0,1,645.5000083371997,108.50000310689211"></path><path id="kity_path_39" fill="none" stroke="rgb(115, 161, 191)" stroke-width="1" d="M748.5000083371997,108.50000310689211C763.5000083371997,108.50000310689211,763.5000083371997,44.50000310689211,778.5000083371997,44.50000310689211L846.5000083371997,44.50000310689211"></path><path id="kity_path_47" fill="none" stroke="rgb(115, 161, 191)" stroke-width="1" d="M748.5000083371997,108.50000310689211C763.5000083371997,108.50000310689211,763.5000083371997,96.50000310689211,778.5000083371997,96.50000310689211L856.5000083371997,96.50000310689211"></path><path id="kity_path_55" fill="none" stroke="rgb(115, 161, 191)" stroke-width="1" d="M748.5000083371997,108.50000310689211C763.5000083371997,108.50000310689211,763.5000083371997,148.5000031068921,778.5000083371997,148.5000031068921L846.5000083371997,148.5000031068921"></path><path id="kity_path_63" fill="none" stroke="rgb(115, 161, 191)" stroke-width="1" d="M748.5000083371997,108.50000310689211C763.5000083371997,108.50000310689211,763.5000083371997,200.5000031068921,778.5000083371997,200.5000031068921L858.5000083371997,200.5000031068921"></path><path id="kity_path_71" fill="none" stroke="rgb(115, 161, 191)" stroke-width="1" d="M463.5000083371997,212.5000031068921A182,38,0,0,0,645.5000083371997,250.5000031068921"></path><path id="kity_path_79" fill="none" stroke="rgb(115, 161, 191)" stroke-width="1" d="M463.5000083371997,212.5000031068921A182,104,0,0,0,645.5000083371997,316.5000031068921"></path><path id="kity_path_87" fill="none" stroke="rgb(115, 161, 191)" stroke-width="1" d="M463.5000083371997,212.5000031068921A182,66,0,0,0,281.5000083371997,146.5000031068921"></path><path id="kity_path_95" fill="none" stroke="rgb(115, 161, 191)" stroke-width="1" d="M463.5000083371997,212.5000031068921A182,0,0,0,1,281.5000083371997,212.5000031068921"></path><path id="kity_path_103" fill="none" stroke="rgb(115, 161, 191)" stroke-width="1" d="M140.5000083371997,212.5000031068921C125.50000833719969,212.5000031068921,125.50000833719969,226.5000031068921,110.50000833719969,226.5000031068921L20.500008337199688,226.5000031068921"></path><path id="kity_path_111" fill="none" stroke="rgb(115, 161, 191)" stroke-width="1" d="M463.5000083371997,212.5000031068921A182,66,0,0,1,281.5000083371997,278.5000031068921"></path></g><g id="minder_node1"><path id="node_outline1" fill="rgb(115, 161, 191)" stroke="rgb(115, 161, 191)" d="M404.5000083371997,192.5000031068921h118a5,5,0,0,1,5,5v30a5,5,0,0,1,-5,5h-118a5,5,0,0,1,-5,-5v-30a5,5,0,0,1,5,-5z" stroke-width="3"></path><g id="node_text1" fill="white"><text id="kity_text_22" text-rendering="inherit" font-size="16" dy=".8em" y="202.10000307112932" x="423.5000083371997">计算机科学</text></g></g><g id="kity_g_12"><path id="kity_path_13" fill="none" stroke="none" d="M423.5000083371997,212.5000031068921h0v0h0z"></path></g><g id="kity_g_14"><path id="kity_path_15" fill="none" stroke="none" d="M423.5000083371997,212.5000031068921h0v0h0z"></path><path id="kity_path_16" fill="none" stroke="none"></path></g><g id="minder_node2"><g id="node_expander1" style="cursor: pointer;"><path id="kity_path_36" fill="white" stroke="gray" d="M646.5000115707517,108.50000155717134A6,6,0,1,1,634.5000115707517,108.50000155717134A6,6,0,1,1,646.5000115707517,108.50000155717134"></path><path id="kity_path_37" fill="none" stroke="gray" d="M636.0000115707517,108.50000155717134L645.0000115707517,108.50000155717134"></path></g><path id="node_outline2" fill="rgb(238, 243, 246)" stroke="rgb(115, 161, 191)" d="M650.500011973083,95.50000155717134h95a3,3,0,0,1,3,3v20a3,3,0,0,1,-3,3h-95a3,3,0,0,1,-3,-3v-20a3,3,0,0,1,3,-3z" stroke-width="1"></path><g id="node_text2" fill="black"><text id="kity_text_33" text-rendering="inherit" font-size="14" dy=".8em" y="99.4000015258789" x="667.500011973083">&#xa0;数学基础</text></g></g><g id="minder_node3"><g id="node_expander2" style="cursor: pointer;" display="none"><path id="kity_path_44" fill="white" stroke="gray" d="M788.5000136867166,30.50000039488077A6,6,0,1,1,776.5000136867166,30.50000039488077A6,6,0,1,1,788.5000136867166,30.50000039488077"></path><path id="kity_path_45" fill="none" stroke="gray"></path></g><path id="node_outline3" fill="none" stroke="none" d="M793.5000139251351,19.50000039488077h48a5,5,0,0,1,5,5v12a5,5,0,0,1,-5,5h-48a5,5,0,0,1,-5,-5v-12a5,5,0,0,1,5,-5z" stroke-width="3"></path><g id="node_text3" fill="black"><text id="kity_text_41" text-rendering="inherit" font-size="12" dy=".8em" y="22.70000036805868" x="798.5000139251351">信息论</text></g></g><g id="minder_node4"><g id="node_expander3" style="cursor: pointer;" display="none"><path id="kity_path_52" fill="white" stroke="gray" d="M788.5000136867166,82.50000116974115A6,6,0,1,1,776.5000136867166,82.50000116974115A6,6,0,1,1,788.5000136867166,82.50000116974115"></path><path id="kity_path_53" fill="none" stroke="gray"></path></g><path id="node_outline4" fill="none" stroke="none" d="M793.5000139251351,71.50000116974115h58a5,5,0,0,1,5,5v12a5,5,0,0,1,-5,5h-58a5,5,0,0,1,-5,-5v-12a5,5,0,0,1,5,-5z" stroke-width="3"></path><g id="node_text4" fill="black"><text id="kity_text_49" text-rendering="inherit" font-size="12" dy=".8em" y="74.70000114291906" x="798.5000139251351">离散数学</text></g></g><g id="minder_node5"><g id="node_expander4" style="cursor: pointer;" display="none"><path id="kity_path_60" fill="white" stroke="gray" d="M788.5000136867166,134.50000194460154A6,6,0,1,1,776.5000136867166,134.50000194460154A6,6,0,1,1,788.5000136867166,134.50000194460154"></path><path id="kity_path_61" fill="none" stroke="gray"></path></g><path id="node_outline5" fill="none" stroke="none" d="M793.5000139251351,123.50000194460154h48a5,5,0,0,1,5,5v12a5,5,0,0,1,-5,5h-48a5,5,0,0,1,-5,-5v-12a5,5,0,0,1,5,-5z" stroke-width="3"></path><g id="node_text5" fill="black"><text id="kity_text_57" text-rendering="inherit" font-size="12" dy=".8em" y="126.70000191777945" x="798.5000139251351">微积分</text></g></g><g id="minder_node6"><g id="node_expander5" style="cursor: pointer;" display="none"><path id="kity_path_68" fill="white" stroke="gray" d="M788.5000136867166,186.50000271946192A6,6,0,1,1,776.5000136867166,186.50000271946192A6,6,0,1,1,788.5000136867166,186.50000271946192"></path><path id="kity_path_69" fill="none" stroke="gray"></path></g><path id="node_outline6" fill="none" stroke="none" d="M793.5000139251351,175.50000271946192h60a5,5,0,0,1,5,5v12a5,5,0,0,1,-5,5h-60a5,5,0,0,1,-5,-5v-12a5,5,0,0,1,5,-5z" stroke-width="3"></path><g id="node_text6" fill="black"><text id="kity_text_65" text-rendering="inherit" font-size="12" dy=".8em" y="178.70000269263983" x="798.5000139251351">线性代数</text></g></g><g id="minder_node7"><g id="node_expander6" style="cursor: pointer;" display="none"><path id="kity_path_76" fill="white" stroke="gray" d="M646.5000115707517,250.50000367313623A6,6,0,1,1,634.5000115707517,250.50000367313623A6,6,0,1,1,646.5000115707517,250.50000367313623"></path><path id="kity_path_77" fill="none" stroke="gray"></path></g><path id="node_outline7" fill="rgb(238, 243, 246)" stroke="rgb(115, 161, 191)" d="M650.500011973083,237.50000367313623h91a3,3,0,0,1,3,3v20a3,3,0,0,1,-3,3h-91a3,3,0,0,1,-3,-3v-20a3,3,0,0,1,3,-3z" stroke-width="1"></path><g id="node_text7" fill="black"><text id="kity_text_73" text-rendering="inherit" font-size="14" dy=".8em" y="241.4000036418438" x="667.500011973083">操作系统</text></g></g><g id="minder_node8"><g id="node_expander7" style="cursor: pointer;" display="none"><path id="kity_path_84" fill="white" stroke="gray" d="M646.5000115707517,316.5000046566129A6,6,0,1,1,634.5000115707517,316.5000046566129A6,6,0,1,1,646.5000115707517,316.5000046566129"></path><path id="kity_path_85" fill="none" stroke="gray"></path></g><path id="node_outline8" fill="rgb(238, 243, 246)" stroke="rgb(115, 161, 191)" d="M650.500011973083,303.5000046566129h105a3,3,0,0,1,3,3v20a3,3,0,0,1,-3,3h-105a3,3,0,0,1,-3,-3v-20a3,3,0,0,1,3,-3z" stroke-width="1"></path><g id="node_text8" fill="black"><text id="kity_text_81" text-rendering="inherit" font-size="14" dy=".8em" y="307.40000462532043" x="667.500011973083">计算机网络</text></g></g><g id="minder_node9"><g id="node_expander8" style="cursor: pointer;" display="none"><path id="kity_path_92" fill="white" stroke="gray" d="M292.5000062957406,146.50000212341547A6,6,0,1,1,280.5000062957406,146.50000212341547A6,6,0,1,1,292.5000062957406,146.50000212341547"></path><path id="kity_path_93" fill="none" stroke="gray"></path></g><path id="node_outline9" fill="rgb(238, 243, 246)" stroke="rgb(115, 161, 191)" d="M199.50000525265932,133.50000212341547h77a3,3,0,0,1,3,3v20a3,3,0,0,1,-3,3h-77a3,3,0,0,1,-3,-3v-20a3,3,0,0,1,3,-3z" stroke-width="1"></path><g id="node_text9" fill="black"><text id="kity_text_89" text-rendering="inherit" font-size="14" dy=".8em" y="137.40000209212303" x="216.50000525265932">数据库</text></g></g><g id="minder_node10"><g id="node_expander9" style="cursor: pointer;"><path id="kity_path_100" fill="white" stroke="gray" d="M292.5000062957406,212.5000031068921A6,6,0,1,1,280.5000062957406,212.5000031068921A6,6,0,1,1,292.5000062957406,212.5000031068921"></path><path id="kity_path_101" fill="none" stroke="gray" d="M282.0000062957406,212.5000031068921L291.0000062957406,212.5000031068921"></path></g><path id="node_outline10" fill="rgb(238, 243, 246)" stroke="rgb(115, 161, 191)" d="M143.5000044181943,199.5000031068921h133a3,3,0,0,1,3,3v20a3,3,0,0,1,-3,3h-133a3,3,0,0,1,-3,-3v-20a3,3,0,0,1,3,-3z" stroke-width="1"></path><g id="node_text10" fill="black"><text id="kity_text_97" text-rendering="inherit" font-size="14" dy=".8em" y="203.40000307559967" x="160.5000044181943">计算机组成原理</text></g></g><g id="minder_node11"><g id="node_expander10" style="cursor: pointer;" display="none"><path id="kity_path_108" fill="white" stroke="gray" d="M112.50000361353159,212.5000031068921A6,6,0,1,1,100.50000361353159,212.5000031068921A6,6,0,1,1,112.50000361353159,212.5000031068921"></path><path id="kity_path_109" fill="none" stroke="gray"></path></g><path id="node_outline11" fill="none" stroke="none" d="M25.50000248104334,201.5000031068921h70a5,5,0,0,1,5,5v12a5,5,0,0,1,-5,5h-70a5,5,0,0,1,-5,-5v-12a5,5,0,0,1,5,-5z" stroke-width="3"></path><g id="node_text11" fill="black"><text id="kity_text_105" text-rendering="inherit" font-size="12" dy=".8em" y="204.70000308007002" x="30.50000248104334">电子学基础</text></g></g><g id="minder_node12"><g id="node_expander11" style="cursor: pointer;" display="none"><path id="kity_path_116" fill="white" stroke="gray" d="M292.5000062957406,278.50000409036875A6,6,0,1,1,280.5000062957406,278.50000409036875A6,6,0,1,1,292.5000062957406,278.50000409036875"></path><path id="kity_path_117" fill="none" stroke="gray"></path></g><path id="node_outline12" fill="rgb(238, 243, 246)" stroke="rgb(115, 161, 191)" d="M143.5000044181943,265.50000409036875h133a3,3,0,0,1,3,3v20a3,3,0,0,1,-3,3h-133a3,3,0,0,1,-3,-3v-20a3,3,0,0,1,3,-3z" stroke-width="1"></path><g id="node_text12" fill="black"><text id="kity_text_113" text-rendering="inherit" font-size="14" dy=".8em" y="269.4000040590763" x="160.5000044181943">数据结构与算法</text></g></g></g></g></svg>